<?xml version="1.0" encoding="UTF-8"?><svg id="Ebene_1" xmlns="http://www.w3.org/2000/svg" xmlns:xlink="http://www.w3.org/1999/xlink" viewBox="0 0 861.96 521.18"><defs><style>.cls-1{opacity:.5;}.cls-1,.cls-2,.cls-3{fill:none;}.cls-4{fill:#fff;}.cls-2{stroke:url(#Unbenannter_Verlauf_28);}.cls-2,.cls-3{stroke-miterlimit:10;stroke-width:16px;}.cls-5{fill:url(#Unbenannter_Verlauf_19);}.cls-3{stroke:gold;}</style><radialGradient id="Unbenannter_Verlauf_19" cx="422.67" cy="261.83" fx="422.67" fy="261.83" r="239.91" gradientUnits="userSpaceOnUse"><stop offset="0" stop-color="#0d5a2c"/><stop offset=".37" stop-color="#0b5529"/><stop offset=".8" stop-color="#084621"/><stop offset="1" stop-color="#063e1d"/></radialGradient><radialGradient id="Unbenannter_Verlauf_28" cx="422.67" cy="261.83" fx="422.67" fy="261.83" r="247.46" gradientUnits="userSpaceOnUse"><stop offset="0" stop-color="#392318"/><stop offset=".17" stop-color="#3d251a"/><stop offset=".36" stop-color="#4c2e21"/><stop offset=".51" stop-color="#5c382a"/><stop offset=".79" stop-color="#4c2a20"/><stop offset="1" stop-color="#3f1f17"/></radialGradient></defs><path class="cls-5" d="m729.17,261.83c0,80.36-65.14,145.5-145.5,145.5h-322c-80.36,0-145.5-65.14-145.5-145.5s65.14-145.5,145.5-145.5h322c80.36,0,145.5,65.14,145.5,145.5Z"/><g class="cls-1"><path class="cls-4" d="m551.75,173.36c63.77,0,115.65,39.69,115.65,88.47s-51.88,88.47-115.65,88.47h-258.15c-63.77,0-115.65-39.69-115.65-88.47s51.88-88.47,115.65-88.47h258.15m0-1h-258.15c-64.43,0-116.65,40.06-116.65,89.47s52.22,89.47,116.65,89.47h258.15c64.43,0,116.65-40.06,116.65-89.47s-52.22-89.47-116.65-89.47h0Z"/></g><g class="cls-1"><path class="cls-4" d="m509.17,238.33c1.65,0,3,1.35,3,3v41c0,1.65-1.35,3-3,3h-26c-1.65,0-3-1.35-3-3v-41c0-1.65,1.35-3,3-3h26m0-1h-26c-2.2,0-4,1.8-4,4v41c0,2.2,1.8,4,4,4h26c2.2,0,4-1.8,4-4v-41c0-2.2-1.8-4-4-4h0Z"/><path class="cls-4" d="m472.17,238.33c1.65,0,3,1.35,3,3v41c0,1.65-1.35,3-3,3h-26c-1.65,0-3-1.35-3-3v-41c0-1.65,1.35-3,3-3h26m0-1h-26c-2.2,0-4,1.8-4,4v41c0,2.2,1.8,4,4,4h26c2.2,0,4-1.8,4-4v-41c0-2.2-1.8-4-4-4h0Z"/><path class="cls-4" d="m435.17,238.33c1.65,0,3,1.35,3,3v41c0,1.65-1.35,3-3,3h-26c-1.65,0-3-1.35-3-3v-41c0-1.65,1.35-3,3-3h26m0-1h-26c-2.2,0-4,1.8-4,4v41c0,2.2,1.8,4,4,4h26c2.2,0,4-1.8,4-4v-41c0-2.2-1.8-4-4-4h0Z"/><path class="cls-4" d="m398.17,238.33c1.65,0,3,1.35,3,3v41c0,1.65-1.35,3-3,3h-26c-1.65,0-3-1.35-3-3v-41c0-1.65,1.35-3,3-3h26m0-1h-26c-2.2,0-4,1.8-4,4v41c0,2.2,1.8,4,4,4h26c2.2,0,4-1.8,4-4v-41c0-2.2-1.8-4-4-4h0Z"/><path class="cls-4" d="m362.17,238.33c1.65,0,3,1.35,3,3v41c0,1.65-1.35,3-3,3h-26c-1.65,0-3-1.35-3-3v-41c0-1.65,1.35-3,3-3h26m0-1h-26c-2.2,0-4,1.8-4,4v41c0,2.2,1.8,4,4,4h26c2.2,0,4-1.8,4-4v-41c0-2.2-1.8-4-4-4h0Z"/></g><path class="cls-3" d="m724.91,261.83c0,78.15-64.23,141.5-143.48,141.5h-317.52c-79.24,0-143.48-63.35-143.48-141.5s64.23-141.5,143.48-141.5h317.52c79.24,0,143.48,63.35,143.48,141.5Z"/><path class="cls-2" d="m729.17,261.83c0,80.36-65.14,145.5-145.5,145.5h-322c-80.36,0-145.5-65.14-145.5-145.5s65.14-145.5,145.5-145.5h322c80.36,0,145.5,65.14,145.5,145.5Z"/></svg>